<svg xmlns="http://www.w3.org/2000/svg" viewBox="0 0 16 16" shape-rendering="crispEdges">
<rect x="3" y="3" width="1" height="1" fill="#2c5fde"/>
<rect x="12" y="3" width="1" height="1" fill="#2c5fde"/>
<rect x="4" y="4" width="1" height="1" fill="#2c5fde"/>
<rect x="11" y="4" width="1" height="1" fill="#2c5fde"/>
<rect x="5" y="5" width="1" height="1" fill="#2c5fde"/>
<rect x="10" y="5" width="1" height="1" fill="#2c5fde"/>
<rect x="6" y="6" width="1" height="1" fill="#2c5fde"/>
<rect x="9" y="6" width="1" height="1" fill="#2c5fde"/>
<rect x="7" y="7" width="2" height="1" fill="#2c5fde"/>
<rect x="7" y="8" width="2" height="1" fill="#2c5fde"/>
<rect x="6" y="9" width="1" height="1" fill="#2c5fde"/>
<rect x="9" y="9" width="1" height="1" fill="#2c5fde"/>
<rect x="5" y="10" width="1" height="1" fill="#2c5fde"/>
<rect x="10" y="10" width="1" height="1" fill="#2c5fde"/>
<rect x="4" y="11" width="1" height="1" fill="#2c5fde"/>
<rect x="11" y="11" width="1" height="1" fill="#2c5fde"/>
<rect x="3" y="12" width="1" height="1" fill="#2c5fde"/>
<rect x="12" y="12" width="1" height="1" fill="#2c5fde"/>
</svg>
